<svg xmlns="http://www.w3.org/2000/svg" width="1280" height="640" viewBox="0 0 1280 640">
  <defs>
    <linearGradient id="brandGrad" x1="0" y1="0" x2="1" y2="0">
      <stop offset="0" stop-color="#4C8DFF"/>
      <stop offset="0.5" stop-color="#34C77B"/>
      <stop offset="1" stop-color="#F2C14E"/>
    </linearGradient>
  </defs>

  <rect width="1280" height="640" fill="#FBFBF9"/>
  <rect width="1280" height="10" fill="url(#brandGrad)"/>
  <rect x="0" y="636" width="1280" height="4" fill="#E9E8E3"/>

  <rect x="86" y="170" width="300" height="300" rx="64" fill="#E6F0E8" stroke="#D5E3D9" stroke-width="6"/>
  <g transform="translate(236,320) scale(2.6) translate(-54,-54)">
    <ellipse cx="54" cy="90" rx="21" ry="4.2" fill="#1E5C38" opacity="0.14"/>
    <path d="M30,36 A30,30 0 0 1 78,36" fill="none" stroke="url(#brandGrad)" stroke-width="6" stroke-linecap="round"/>
    <g transform="translate(81,24) scale(0.68) translate(-12,-12)">
      <path d="M9.937,15.5 A2,2 0 0 0 8.5,14.063 l-6.135,-1.582 a.5,.5 0 0 1 0,-.962 L8.5,9.936 A2,2 0 0 0 9.937,8.5 l1.582,-6.135 a.5,.5 0 0 1 .963,0 L14.063,8.5 A2,2 0 0 0 15.5,9.937 l6.135,1.581 a.5,.5 0 0 1 0,.964 L15.5,14.063 a2,2 0 0 0 -1.437,1.437 l-1.582,6.135 a.5,.5 0 0 1 -.963,0 z" fill="#F2C14E"/>
    </g>
    <path d="M41,47 a13,13 0 0 1 13,-13 a13,13 0 0 1 13,13 v14 a13,13 0 0 1 -13,13 a13,13 0 0 1 -13,-13 z" fill="#FFFFFF" stroke="#173F2B" stroke-width="3" stroke-linejoin="round"/>
    <path d="M47.5,48.4 a2.6,2.6 0 1 0 2.6,5.2 a2.6,2.6 0 1 0 -2.6,-5.2 z" fill="#173F2B"/>
    <path d="M60.5,48.4 a2.6,2.6 0 1 0 2.6,5.2 a2.6,2.6 0 1 0 -2.6,-5.2 z" fill="#173F2B"/>
    <path d="M49.5,57.5 A5,5 0 0 0 58.5,57.5" fill="none" stroke="#173F2B" stroke-width="2.4" stroke-linecap="round"/>
    <path d="M51,72 h6 a1.5,1.5 0 0 1 1.5,1.5 v4 a1.5,1.5 0 0 1 -1.5,1.5 h-6 a1.5,1.5 0 0 1 -1.5,-1.5 v-4 a1.5,1.5 0 0 1 1.5,-1.5 z" fill="#FFFFFF" stroke="#173F2B" stroke-width="2.5" stroke-linejoin="round"/>
    <path d="M44,80 A15,15 0 0 0 64,80" fill="none" stroke="#173F2B" stroke-width="7.5" stroke-linecap="round"/>
    <path d="M44,80 A15,15 0 0 0 64,80" fill="none" stroke="#FFFFFF" stroke-width="4.8" stroke-linecap="round"/>
  </g>

  <text x="470" y="298" font-family="'Arial Rounded MT Bold','Helvetica Neue',Helvetica,Arial,sans-serif" font-size="96" font-weight="800" fill="#1C1B19">Whisper Bridge</text>
  <text x="472" y="356" font-family="Helvetica,Arial,sans-serif" font-size="33" fill="#6E6C66">Talk anywhere. Type everywhere.</text>
  <rect x="472" y="392" width="280" height="11" rx="5.5" fill="url(#brandGrad)"/>

  <g font-family="Helvetica,Arial,sans-serif" font-size="26" font-weight="600" fill="#2E7D46">
    <rect x="472" y="432" width="118" height="50" rx="25" fill="#E6F0E8"/>
    <text x="531" y="464" text-anchor="middle">Android</text>
    <rect x="606" y="432" width="100" height="50" rx="25" fill="#E6F0E8"/>
    <text x="656" y="464" text-anchor="middle">macOS</text>
    <rect x="722" y="432" width="110" height="50" rx="25" fill="#E6F0E8"/>
    <text x="777" y="464" text-anchor="middle">Ubuntu</text>
    <rect x="848" y="432" width="122" height="50" rx="25" fill="#E6F0E8"/>
    <text x="909" y="464" text-anchor="middle">Windows</text>
  </g>

  <text x="472" y="556" font-family="Helvetica,Arial,sans-serif" font-size="25" fill="#9A988F">Unofficial companion for Wispr Flow — type from your phone on any computer</text>
</svg>
